{
	"asset":{
		"generator":"Khronos glTF Blender I/O v3.6.27",
		"version":"2.0"
	},
	"scene":0,
	"scenes":[
		{
			"name":"Scene",
			"nodes":[
				58
			]
		}
	],
	"nodes":[
		{
			"name":"DEF-pelvis.L",
			"rotation":[
				-0.5137688517570496,
				-0.5826168656349182,
				-0.41589638590812683,
				0.47289472818374634
			],
			"translation":[
				0.0716530904173851,
				3.474388599395752,
				0.009851209819316864
			]
		},
		{
			"name":"DEF-pelvis.R",
			"rotation":[
				-0.5137688517570496,
				0.5826168656349182,
				0.41589638590812683,
				0.47289472818374634
			],
			"translation":[
				-0.0716530904173851,
				3.474388599395752,
				0.009851209819316864
			]
		},
		{
			"name":"DEF-toe.L",
			"rotation":[
				0.013758789747953415,
				-0.9616135954856873,
				0.27403414249420166,
				0.003917233552783728
			],
			"scale":[
				0.9999999403953552,
				1.0000001192092896,
				0.9999999403953552
			],
			"translation":[
				-1.0523361737568848e-08,
				0.5827276706695557,
				4.0046870708465576e-08
			]
		},
		{
			"children":[
				2
			],
			"name":"DEF-foot.L",
			"rotation":[
				-0.5230189561843872,
				-0.03171829506754875,
				0.04769958555698395,
				0.8503940105438232
			],
			"scale":[
				1,
				0.9999999403953552,
				1
			],
			"translation":[
				-3.3527612686157227e-08,
				0.7911232113838196,
				-3.725290298461914e-09
			]
		},
		{
			"children":[
				3
			],
			"name":"DEF-shin.L.001",
			"rotation":[
				-3.608875331906347e-08,
				-8.847564458847046e-09,
				3.119930624961853e-08,
				1
			],
			"scale":[
				1,
				0.9999999403953552,
				0.9999999403953552
			],
			"translation":[
				-5.587935447692871e-09,
				0.7911229133605957,
				-7.450580596923828e-09
			]
		},
		{
			"children":[
				4
			],
			"name":"DEF-shin.L",
			"rotation":[
				0.07448737323284149,
				6.601626267865868e-08,
				1.7255578299568697e-08,
				0.9972219467163086
			],
			"scale":[
				0.9999999403953552,
				0.9999998807907104,
				1
			],
			"translation":[
				-1.641456037759781e-08,
				0.7538319826126099,
				-1.7695128917694092e-08
			]
		},
		{
			"children":[
				5
			],
			"name":"DEF-thigh.L.001",
			"rotation":[
				-5.529728674957823e-09,
				3.5797711461782455e-08,
				-2.1314917830750346e-08,
				1
			],
			"scale":[
				1,
				0.9999999403953552,
				0.9999999403953552
			],
			"translation":[
				-2.0721927285194397e-08,
				0.7538321614265442,
				-1.3969838619232178e-08
			]
		},
		{
			"children":[
				6
			],
			"name":"DEF-thigh.L",
			"rotation":[
				0.9955308437347412,
				0.05705009028315544,
				-0.07508741319179535,
				0.005052892956882715
			],
			"scale":[
				1,
				0.9999999403953552,
				1
			],
			"translation":[
				0.2814224362373352,
				3.402330160140991,
				0.009420312009751797
			]
		},
		{
			"name":"DEF-toe.R",
			"rotation":[
				0.013759074732661247,
				0.9616137146949768,
				-0.27403372526168823,
				0.0039180270396173
			],
			"scale":[
				0.9999999403953552,
				1,
				0.9999998807907104
			],
			"translation":[
				-1.1414871714521269e-08,
				0.5827274918556213,
				8.381903171539307e-09
			]
		},
		{
			"children":[
				8
			],
			"name":"DEF-foot.R",
			"rotation":[
				-0.52300626039505,
				0.031387731432914734,
				-0.047872141003608704,
				0.8504043817520142
			],
			"scale":[
				1,
				1,
				0.9999999403953552
			],
			"translation":[
				7.078051567077637e-08,
				0.7911192774772644,
				1.1175870895385742e-08
			]
		},
		{
			"children":[
				9
			],
			"name":"DEF-shin.R.001",
			"rotation":[
				-2.7939677238464355e-09,
				2.0721927285194397e-08,
				-9.778887033462524e-09,
				1
			],
			"translation":[
				2.60770320892334e-08,
				0.7911193370819092,
				-2.2351741790771484e-08
			]
		},
		{
			"children":[
				10
			],
			"name":"DEF-shin.R",
			"rotation":[
				0.07449620217084885,
				-4.1086536839429755e-07,
				3.076820576097816e-08,
				0.9972212910652161
			],
			"translation":[
				-1.7229467630386353e-08,
				0.7538373470306396,
				-1.3969838619232178e-08
			]
		},
		{
			"children":[
				11
			],
			"name":"DEF-thigh.R.001",
			"rotation":[
				2.852174940670693e-09,
				-1.6298140614878776e-09,
				2.182792835370151e-11,
				1
			],
			"scale":[
				1,
				1.0000001192092896,
				1.0000001192092896
			],
			"translation":[
				-8.96397978067398e-09,
				0.7538372278213501,
				-7.450580596923828e-09
			]
		},
		{
			"children":[
				12
			],
			"name":"DEF-thigh.R",
			"rotation":[
				0.9955011606216431,
				-0.05707690864801407,
				0.0754585936665535,
				0.005076349712908268
			],
			"scale":[
				0.9999999403953552,
				0.9999999403953552,
				0.9999999403953552
			],
			"translation":[
				-0.28133493661880493,
				3.402330160140991,
				0.009420312009751797
			]
		},
		{
			"name":"DEF-shoulder.L",
			"rotation":[
				-0.6704290509223938,
				-0.45529600977897644,
				-0.3899894654750824,
				0.4371941387653351
			],
			"scale":[
				0.9999999403953552,
				0.9999999403953552,
				0.9999998807907104
			],
			"translation":[
				0.1358557790517807,
				5.253990650177002,
				-0.1397095024585724
			]
		},
		{
			"name":"DEF-f_index.03.L",
			"rotation":[
				0.2126346230506897,
				0.00013718995614908636,
				0.013047371059656143,
				0.9770447015762329
			],
			"scale":[
				1,
				1,
				0.9999999403953552
			],
			"translation":[
				-1.5832483768463135e-08,
				0.1082615777850151,
				-1.4901161193847656e-08
			]
		},
		{
			"children":[
				15
			],
			"name":"DEF-f_index.02.L",
			"rotation":[
				0.21752208471298218,
				0.0015218715416267514,
				-0.00683093536645174,
				0.9760302901268005
			],
			"scale":[
				0.9999999403953552,
				0.9999998807907104,
				0.9999998807907104
			],
			"translation":[
				2.9802322387695312e-08,
				0.1189168244600296,
				2.3096799850463867e-07
			]
		},
		{
			"children":[
				16
			],
			"name":"DEF-f_index.01.L",
			"rotation":[
				0.08308529108762741,
				0.8448307514190674,
				0.057336870580911636,
				0.5254240036010742
			],
			"scale":[
				0.9999999403953552,
				1,
				1
			],
			"translation":[
				0.026946600526571274,
				0.406418114900589,
				0.1650400459766388
			]
		},
		{
			"name":"DEF-thumb.03.L",
			"rotation":[
				0.1460619866847992,
				-3.510692476993427e-05,
				-0.003424279857426882,
				0.989269495010376
			],
			"scale":[
				1.0000001192092896,
				1,
				1
			],
			"translation":[
				7.450580596923828e-08,
				0.11126837879419327,
				1.341104507446289e-07
			]
		},
		{
			"children":[
				18
			],
			"name":"DEF-thumb.02.L",
			"rotation":[
				0.11605416238307953,
				-0.0002147916966350749,
				0.0018381965346634388,
				0.9932411909103394
			],
			"scale":[
				0.9999999403953552,
				0.9999999403953552,
				0.9999998807907104
			],
			"translation":[
				7.450580596923828e-08,
				0.0965188667178154,
				6.705522537231445e-08
			]
		},
		{
			"children":[
				19
			],
			"name":"DEF-thumb.01.L",
			"rotation":[
				-0.2682790756225586,
				-0.8494502305984497,
				-0.2916736304759979,
				0.3484066426753998
			],
			"scale":[
				0.9999999403953552,
				0.9999998807907104,
				1
			],
			"translation":[
				0.1250229924917221,
				0.1746043562889099,
				0.09743691235780716
			]
		},
		{
			"name":"DEF-palm.01.L",
			"rotation":[
				0.12639088928699493,
				0.676190197467804,
				0.021749671548604965,
				0.7254785895347595
			],
			"scale":[
				1,
				1.0000001192092896,
				0.9999998807907104
			],
			"translation":[
				-0.004025204107165337,
				0.19150914251804352,
				0.11774957180023193
			]
		},
		{
			"name":"DEF-f_middle.03.L",
			"rotation":[
				0.19844405353069305,
				-3.52243660017848e-05,
				0.0024935011751949787,
				0.9801090359687805
			],
			"scale":[
				1,
				0.9999999403953552,
				1
			],
			"translation":[
				3.3527612686157227e-08,
				0.12722675502300262,
				-3.5297125577926636e-07
			]
		},
		{
			"children":[
				22
			],
			"name":"DEF-f_middle.02.L",
			"rotation":[
				0.2348809391260147,
				0.0002774758031591773,
				-0.0011500926921144128,
				0.9720234274864197
			],
			"scale":[
				0.9999999403953552,
				1,
				1
			],
			"translation":[
				7.450580596923828e-09,
				0.11019638180732727,
				1.555308699607849e-07
			]
		},
		{
			"children":[
				23
			],
			"name":"DEF-f_middle.01.L",
			"rotation":[
				-0.03082863800227642,
				0.7897593379020691,
				-0.1448344588279724,
				0.5952754020690918
			],
			"scale":[
				1,
				1,
				0.9999999403953552
			],
			"translation":[
				-0.0071236854419112206,
				0.3798075318336487,
				-0.002304673194885254
			]
		},
		{
			"name":"DEF-palm.02.L",
			"rotation":[
				-0.037624623626470566,
				0.7051476836204529,
				-0.09223799407482147,
				0.7020280361175537
			],
			"scale":[
				0.9999998807907104,
				0.9999998807907104,
				0.9999999403953552
			],
			"translation":[
				-0.021865904331207275,
				0.19078993797302246,
				0.0329679399728775
			]
		},
		{
			"children":[
				17,
				20,
				21,
				24,
				25
			],
			"name":"DEF-hand.L",
			"rotation":[
				0.033404331654310226,
				0.003341902745887637,
				-0.09934114664793015,
				0.9944869875907898
			],
			"translation":[
				-5.029141902923584e-08,
				0.3932027220726013,
				3.166496753692627e-08
			]
		},
		{
			"children":[
				26
			],
			"name":"DEF-forearm.L.001",
			"rotation":[
				1.6205012798309326e-07,
				5.811452865600586e-07,
				4.4237827978577116e-07,
				1
			],
			"scale":[
				0.9999999403953552,
				0.9999999403953552,
				1
			],
			"translation":[
				7.636845111846924e-08,
				0.3932029604911804,
				5.029141902923584e-08
			]
		},
		{
			"children":[
				27
			],
			"name":"DEF-forearm.L",
			"rotation":[
				0.04931329935789108,
				-1.3536944152292563e-06,
				-9.96796529761923e-07,
				0.9987834095954895
			],
			"scale":[
				1,
				1,
				0.9999999403953552
			],
			"translation":[
				-1.5273690223693848e-07,
				0.428266316652298,
				0
			]
		},
		{
			"children":[
				28
			],
			"name":"DEF-upper_arm.L.001",
			"rotation":[
				5.960464477539063e-08,
				8.940696716308594e-08,
				9.872019290924072e-08,
				1
			],
			"translation":[
				-4.6938657760620117e-07,
				0.42826539278030396,
				2.2351741790771484e-08
			]
		},
		{
			"children":[
				29
			],
			"name":"DEF-upper_arm.L",
			"rotation":[
				-0.09578366577625275,
				-0.1034596860408783,
				-0.9053468108177185,
				0.4005855917930603
			],
			"scale":[
				0.9999999403953552,
				0.9999998211860657,
				0.9999999403953552
			],
			"translation":[
				0.6259349584579468,
				5.1412739753723145,
				-0.29305702447891235
			]
		},
		{
			"name":"DEF-shoulder.R",
			"rotation":[
				-0.670452356338501,
				0.45527946949005127,
				0.38997161388397217,
				0.43719154596328735
			],
			"scale":[
				1,
				0.9999999403953552,
				1
			],
			"translation":[
				-0.1358557790517807,
				5.253990650177002,
				-0.1397095024585724
			]
		},
		{
			"name":"DEF-f_index.03.R",
			"rotation":[
				0.2126345932483673,
				-0.00013719328853767365,
				-0.013047398999333382,
				0.9770447015762329
			],
			"scale":[
				1,
				0.9999998807907104,
				0.9999999403953552
			],
			"translation":[
				3.3527612686157227e-08,
				0.10826199501752853,
				1.4901161193847656e-08
			]
		},
		{
			"children":[
				32
			],
			"name":"DEF-f_index.02.R",
			"rotation":[
				0.21752211451530457,
				-0.0015218027401715517,
				0.006830871570855379,
				0.9760303497314453
			],
			"scale":[
				0.9999999403953552,
				0.9999999403953552,
				0.9999999403953552
			],
			"translation":[
				-1.0058283805847168e-07,
				0.11891715228557587,
				-2.9802322387695312e-08
			]
		},
		{
			"children":[
				33
			],
			"name":"DEF-f_index.01.R",
			"rotation":[
				0.08308610320091248,
				-0.844840943813324,
				-0.0573362298309803,
				0.5254075527191162
			],
			"translation":[
				-0.026883456856012344,
				0.4064715802669525,
				0.1650361716747284
			]
		},
		{
			"name":"DEF-thumb.03.R",
			"rotation":[
				0.14606206119060516,
				3.508906956994906e-05,
				0.003424255643039942,
				0.9892695546150208
			],
			"scale":[
				1,
				1,
				0.9999998211860657
			],
			"translation":[
				5.960464477539063e-08,
				0.1112682893872261,
				1.6391277313232422e-07
			]
		},
		{
			"children":[
				35
			],
			"name":"DEF-thumb.02.R",
			"rotation":[
				0.11605406552553177,
				0.0002147710620192811,
				-0.0018382978159934282,
				0.9932411909103394
			],
			"scale":[
				0.9999998807907104,
				0.9999998807907104,
				0.9999999403953552
			],
			"translation":[
				8.940696716308594e-08,
				0.09651894122362137,
				7.450580596923828e-08
			]
		},
		{
			"children":[
				36
			],
			"name":"DEF-thumb.01.R",
			"rotation":[
				-0.2682836949825287,
				0.8494435548782349,
				0.2916688323020935,
				0.3484233319759369
			],
			"scale":[
				1,
				1.0000001192092896,
				1
			],
			"translation":[
				-0.12495744228363037,
				0.17465783655643463,
				0.0974290668964386
			]
		},
		{
			"name":"DEF-palm.01.R",
			"rotation":[
				0.12639138102531433,
				-0.6762042045593262,
				-0.0217482578009367,
				0.7254654765129089
			],
			"scale":[
				1.0000001192092896,
				1.0000001192092896,
				1
			],
			"translation":[
				0.004090096801519394,
				0.19156226515769958,
				0.11774669587612152
			]
		},
		{
			"name":"DEF-f_middle.03.R",
			"rotation":[
				0.19844405353069305,
				3.52149254467804e-05,
				-0.0024934951215982437,
				0.9801090359687805
			],
			"scale":[
				1,
				0.9999998807907104,
				1
			],
			"translation":[
				-1.862645149230957e-08,
				0.12722685933113098,
				-2.1047890186309814e-07
			]
		},
		{
			"children":[
				39
			],
			"name":"DEF-f_middle.02.R",
			"rotation":[
				0.2348809838294983,
				-0.00027748383581638336,
				0.0011501022381708026,
				0.9720234274864197
			],
			"scale":[
				0.9999999403953552,
				0.9999998807907104,
				1
			],
			"translation":[
				-2.9802322387695312e-08,
				0.11019660532474518,
				3.818422555923462e-08
			]
		},
		{
			"children":[
				40
			],
			"name":"DEF-f_middle.01.R",
			"rotation":[
				-0.030831564217805862,
				-0.7897708415985107,
				0.14483284950256348,
				0.5952603816986084
			],
			"translation":[
				0.0071930717676877975,
				0.3798612058162689,
				-0.0023073405027389526
			]
		},
		{
			"name":"DEF-palm.02.R",
			"rotation":[
				-0.03762635588645935,
				-0.7051612138748169,
				0.0922362208366394,
				0.7020145654678345
			],
			"scale":[
				0.9999999403953552,
				0.9999999403953552,
				1
			],
			"translation":[
				0.021933937445282936,
				0.19084352254867554,
				0.032965805381536484
			]
		},
		{
			"children":[
				34,
				37,
				38,
				41,
				42
			],
			"name":"DEF-hand.R",
			"rotation":[
				0.033401504158973694,
				-0.003322552191093564,
				0.09934280067682266,
				0.9944869875907898
			],
			"scale":[
				1,
				1,
				0.9999999403953552
			],
			"translation":[
				7.916241884231567e-08,
				0.3932023048400879,
				1.5459954738616943e-07
			]
		},
		{
			"children":[
				43
			],
			"name":"DEF-forearm.R.001",
			"rotation":[
				-2.0838342607021332e-07,
				5.906913429498672e-07,
				3.6973506212234497e-07,
				1
			],
			"translation":[
				-7.078051567077637e-08,
				0.39320188760757446,
				1.6577541828155518e-07
			]
		},
		{
			"children":[
				44
			],
			"name":"DEF-forearm.R",
			"rotation":[
				0.04931405559182167,
				-1.2327082004048862e-06,
				-7.944533990666969e-07,
				0.9987833499908447
			],
			"scale":[
				1,
				0.9999999403953552,
				0.9999999403953552
			],
			"translation":[
				-6.705522537231445e-08,
				0.42826610803604126,
				5.960464477539063e-08
			]
		},
		{
			"children":[
				45
			],
			"name":"DEF-upper_arm.R.001",
			"rotation":[
				4.8428770327291204e-08,
				-4.6566128730773926e-09,
				-5.9138983488082886e-08,
				1
			],
			"scale":[
				1,
				1,
				1.0000001192092896
			],
			"translation":[
				-4.6938657760620117e-07,
				0.4282662868499756,
				5.960464477539063e-08
			]
		},
		{
			"children":[
				46
			],
			"name":"DEF-upper_arm.R",
			"rotation":[
				-0.09578458964824677,
				0.10345997661352158,
				0.9053469300270081,
				0.40058499574661255
			],
			"scale":[
				0.9999999403953552,
				0.9999997615814209,
				0.9999999403953552
			],
			"translation":[
				-0.6258478760719299,
				5.141273498535156,
				-0.29305681586265564
			]
		},
		{
			"name":"DEF-breast.L",
			"rotation":[
				0.6226180791854858,
				0.0073140463791787624,
				0.0058171688579022884,
				0.7824701070785522
			],
			"scale":[
				0.9999999403953552,
				1,
				0.9999992251396179
			],
			"translation":[
				0.355594664812088,
				4.776190280914307,
				-0.06811749190092087
			]
		},
		{
			"name":"DEF-breast.R",
			"rotation":[
				0.6226180791854858,
				-0.0073140463791787624,
				-0.0058171688579022884,
				0.7824701070785522
			],
			"scale":[
				0.9999999403953552,
				1,
				0.9999992251396179
			],
			"translation":[
				-0.355594664812088,
				4.776190280914307,
				-0.06811749190092087
			]
		},
		{
			"name":"DEF-spine.006",
			"rotation":[
				-0.14492781460285187,
				-2.79151350923712e-07,
				-2.821849243161978e-08,
				0.9894422292709351
			],
			"scale":[
				1,
				0.9999999403953552,
				1
			],
			"translation":[
				6.5432104179308226e-12,
				0.10255875438451767,
				1.119341916933081e-07
			]
		},
		{
			"children":[
				50
			],
			"name":"DEF-spine.005",
			"rotation":[
				-0.0018195987213402987,
				1.1904396046702459e-07,
				-7.703421789351239e-10,
				0.9999983310699463
			],
			"translation":[
				-4.32729407862098e-11,
				0.12197467684745789,
				2.243960572911874e-08
			]
		},
		{
			"children":[
				51
			],
			"name":"DEF-spine.004",
			"rotation":[
				0.16305460035800934,
				1.419186157480823e-10,
				3.902022172042052e-08,
				0.9866170883178711
			],
			"scale":[
				1,
				0.9999999403953552,
				0.9999999403953552
			],
			"translation":[
				3.019717809138456e-11,
				0.6120908856391907,
				8.774414528289753e-11
			]
		},
		{
			"children":[
				52
			],
			"name":"DEF-spine.003",
			"rotation":[
				0.06565451622009277,
				2.049508349491469e-12,
				1.5682712017905942e-08,
				0.9978424310684204
			],
			"translation":[
				1.4697576489197672e-11,
				0.496942400932312,
				-2.226399686833247e-08
			]
		},
		{
			"children":[
				53
			],
			"name":"DEF-spine.002",
			"rotation":[
				-0.017042795196175575,
				1.1919132703042123e-07,
				-2.060999371167327e-09,
				0.9998548030853271
			],
			"translation":[
				-1.5834653466911819e-12,
				0.39138156175613403,
				-1.8626438169633275e-09
			]
		},
		{
			"children":[
				54
			],
			"name":"DEF-spine.001",
			"rotation":[
				-0.06447630375623703,
				-1.1895959772800779e-07,
				-7.68630670222592e-09,
				0.9979192614555359
			],
			"scale":[
				1,
				0.9999999403953552,
				1
			],
			"translation":[
				-4.472422432399981e-12,
				0.4360167980194092,
				-3.6375473744243436e-09
			]
		},
		{
			"children":[
				55
			],
			"name":"DEF-spine",
			"rotation":[
				0.012647638097405434,
				1.1919996012466072e-07,
				1.5077192827561703e-09,
				0.9999200105667114
			],
			"scale":[
				1,
				0.9999999403953552,
				0.9999999403953552
			],
			"translation":[
				0.0003680198860820383,
				3.4994401931762695,
				0.008455753326416016
			]
		},
		{
			"mesh":0,
			"name":"Hero",
			"skin":0
		},
		{
			"children":[
				57,
				0,
				1,
				7,
				13,
				14,
				30,
				31,
				47,
				48,
				49,
				56
			],
			"name":"rig"
		}
	],
	"materials":[
		{
			"doubleSided":true,
			"name":"hero shader",
			"pbrMetallicRoughness":{}
		}
	],
	"meshes":[
		{
			"name":"Hero",
			"primitives":[
				{
					"attributes":{
						"COLOR_0":0,
						"POSITION":1,
						"NORMAL":2,
						"TEXCOORD_0":3,
						"JOINTS_0":4,
						"WEIGHTS_0":5
					},
					"indices":6,
					"material":0
				}
			]
		}
	],
	"skins":[
		{
			"inverseBindMatrices":7,
			"joints":[
				0,
				1,
				7,
				6,
				5,
				4,
				3,
				2,
				13,
				12,
				11,
				10,
				9,
				8,
				14,
				30,
				29,
				28,
				27,
				26,
				17,
				16,
				15,
				20,
				19,
				18,
				21,
				24,
				23,
				22,
				25,
				31,
				47,
				46,
				45,
				44,
				43,
				34,
				33,
				32,
				37,
				36,
				35,
				38,
				41,
				40,
				39,
				42,
				48,
				49,
				56,
				55,
				54,
				53,
				52,
				51,
				50
			],
			"name":"rig"
		}
	],
	"accessors":[
		{
			"bufferView":0,
			"componentType":5126,
			"count":3299,
			"type":"VEC4"
		},
		{
			"bufferView":1,
			"componentType":5126,
			"count":3299,
			"max":[
				2.20058536529541,
				6.769925117492676,
				0.7293262481689453
			],
			"min":[
				-2.20058536529541,
				-0.0817408561706543,
				-0.5403538942337036
			],
			"type":"VEC3"
		},
		{
			"bufferView":2,
			"componentType":5126,
			"count":3299,
			"type":"VEC3"
		},
		{
			"bufferView":3,
			"componentType":5126,
			"count":3299,
			"type":"VEC2"
		},
		{
			"bufferView":4,
			"componentType":5121,
			"count":3299,
			"type":"VEC4"
		},
		{
			"bufferView":5,
			"componentType":5126,
			"count":3299,
			"type":"VEC4"
		},
		{
			"bufferView":6,
			"componentType":5123,
			"count":17688,
			"type":"SCALAR"
		},
		{
			"bufferView":7,
			"componentType":5126,
			"count":57,
			"type":"MAT4"
		}
	],
	"bufferViews":[
		{
			"buffer":0,
			"byteLength":52784,
			"byteOffset":0,
			"target":34962
		},
		{
			"buffer":0,
			"byteLength":39588,
			"byteOffset":52784,
			"target":34962
		},
		{
			"buffer":0,
			"byteLength":39588,
			"byteOffset":92372,
			"target":34962
		},
		{
			"buffer":0,
			"byteLength":26392,
			"byteOffset":131960,
			"target":34962
		},
		{
			"buffer":0,
			"byteLength":13196,
			"byteOffset":158352,
			"target":34962
		},
		{
			"buffer":0,
			"byteLength":52784,
			"byteOffset":171548,
			"target":34962
		},
		{
			"buffer":0,
			"byteLength":35376,
			"byteOffset":224332,
			"target":34963
		},
		{
			"buffer":0,
			"byteLength":3648,
			"byteOffset":259708
		}
	],
	"buffers":[
		{
			"byteLength":263356,
			"uri":"chamel.bin"
		}
	]
}
